<svg xmlns="http://www.w3.org/2000/svg" width="256" height="256" viewBox="0 0 256 256"><g fill="#555D66"><path d="M107.252 116.328H67.517c-5.925 0-5.925-.349-5.925-9.76V96.461c0-17.427 1.395-42.872 7.668-58.904 5.229-12.548 13.942-19.17 24.748-19.17 11.501 0 21.261 7.668 27.883 15.336 2.44 2.789 4.532 4.183 8.364 4.183 6.624 0 13.246-5.577 13.246-12.547 0-12.548-15.685-20.914-34.158-20.914-34.506 0-54.025 24.399-62.739 44.266-8.365 19.519-10.805 41.129-10.805 61.344 0 3.485-2.44 5.577-5.228 6.971l-14.988 7.32c-1.394 2.091-1.046 5.228 1.046 6.623h12.199c6.97 0 6.97.696 6.97 10.106v73.545c0 25.095-.348 28.58-13.245 30.323l-8.017 1.045c-2.44 1.743-1.743 7.669.697 8.714 10.457-.696 20.913-1.045 33.46-1.045 12.2 0 22.307.349 37.992 1.045 2.439-1.045 3.137-6.971.697-8.714l-12.547-1.045c-12.547-1.045-13.245-5.229-13.245-30.323v-73.545c0-9.41 0-10.106 5.925-10.106h37.295c3.836-1.396 6.276-11.155 2.442-14.641zM241.954 70.317l-2.788-.349c-6.273-.696-6.971-2.091-6.971-14.291V25.699c0-12.026-7.322-21.96-21.787-21.96-8.018 0-16.209 4.706-20.043 6.971-1.045.523-2.79 1.395-3.311 1.395-.524 0-.871-.349-.871-1.395 0-1.22.521-5.403.521-7.842-.696-1.046-1.742-1.569-3.135-1.569-5.055 3.138-17.604 7.843-25.796 10.108-1.221 1.046-1.221 4.184 0 5.229l2.44 1.568c3.311 2.091 3.311 4.183 3.311 11.154v26.317c0 12.2-.696 13.595-6.972 14.291l-2.787.349c-1.396 1.045-1.396 5.055.173 6.1 6.1-.349 13.246-.522 20.566-.522 8.366 0 13.942.173 19.348.522 1.567-1.045 1.567-5.055.174-6.1l-2.79-.349c-4.356-.522-5.053-2.091-5.053-11.677V27.093c0-3.137.347-5.229 1.392-6.449 1.396-1.917 4.882-4.183 9.763-4.183 8.714 0 12.199 5.577 12.199 12.375V58.29c0 9.585-.697 10.806-4.706 11.503l-3.137.522c-1.396 1.045-1.396 5.055.174 6.1 5.055-.349 11.853-.522 18.823-.522 8.365 0 15.687.173 21.089.522 1.57-1.043 1.57-5.053.174-6.098zM197.86 103.722c-2.174 15.687-7.374 35.703-14.63 49.003l12.361-7.831c1.135 14.549.192 33.69-10.474 43.523-7.522 6.938-19.739 9.16-36.356 6.66l8.776-11.669c-13.838 6.166-34.208 9.745-50.018 10.654 12.578 9.619 27.429 24.013 35.424 36.881l-.776-15.75c6.683 1.182 12.952 1.771 18.802 1.771 15.976 0 28.815-4.4 38.327-13.173 14-12.91 19.763-34.902 16.844-63.842l15.643 2.037c-12.187-8.998-25.344-24.955-33.923-38.264z"/></g></svg>